<?xml version="1.0" encoding="UTF-8"?>
<svg version="1.1" xmlns="http://www.w3.org/2000/svg" width="895" height="494">
<path d="M0 0 C9.24 0 18.48 0 28 0 C28 17.82 28 35.64 28 54 C154.06 54 280.12 54 410 54 C410 36.18 410 18.36 410 0 C418.58 0 427.16 0 436 0 C436 44.88 436 89.76 436 136 C427.42 136 418.84 136 410 136 C410 118.18 410 100.36 410 82 C283.94 82 157.88 82 28 82 C28 99.82 28 117.64 28 136 C18.76 136 9.52 136 0 136 C0 91.12 0 46.24 0 0 Z " fill="#FFFFFF" transform="translate(268,261)"/>
<path d="M0 0 C8.58 0 17.16 0 26 0 C26 45.54 26 91.08 26 138 C17.42 138 8.84 138 0 138 C0 135.36 0 132.72 0 130 C-0.57105469 130.45890625 -1.14210938 130.9178125 -1.73046875 131.390625 C-12.11906508 139.25226546 -23.01286379 142.31330591 -36 141 C-48.14723321 139.02709367 -59.4270509 132.30523594 -66.91015625 122.49609375 C-76.71929181 107.85528207 -78.92355479 91.92132027 -76.5390625 74.6640625 C-73.10521458 60.88827261 -65.64400109 49.35943209 -53.78515625 41.54296875 C-42.78586663 35.44939315 -29.87583832 33.93463558 -17.6875 37.125 C-11.65869346 39.23558721 -5.53655274 42.46344726 -1 47 C-0.67 31.49 -0.34 15.98 0 0 Z M-45.4921875 69.046875 C-51.84797401 77.27975908 -51.82374122 86.01083433 -51 96 C-49.85437891 103.09617721 -45.25057777 108.31132617 -40 113 C-33.61873649 117.42418455 -26.57388658 118.11729658 -19 117 C-10.78045497 114.45920047 -5.433532 109.43233813 -0.90625 102.26953125 C2.55496236 95.01059978 2.28733465 84.59506951 0.15625 76.98828125 C-3.15621864 69.68070684 -8.464113 65.10793263 -15.25 61.0625 C-26.80673677 57.78809125 -37.37504837 60.06139075 -45.4921875 69.046875 Z " fill="#FFFFFF" transform="translate(512,87)"/>
<path d="M0 0 C11.240649 8.25594251 18.03913251 18.75845517 21.046875 32.3828125 C23.39367714 49.72959164 21.3127588 65.60066606 10.921875 80.06640625 C3.26987654 89.45093266 -7.50350269 95.90824122 -19.484375 97.84765625 C-34.29530703 99.07519274 -43.31134695 95.36877589 -55.484375 86.84765625 C-55.814375 101.36765625 -56.144375 115.88765625 -56.484375 130.84765625 C-64.734375 130.84765625 -72.984375 130.84765625 -81.484375 130.84765625 C-81.484375 86.29765625 -81.484375 41.74765625 -81.484375 -4.15234375 C-73.234375 -4.15234375 -64.984375 -4.15234375 -56.484375 -4.15234375 C-56.154375 -1.51234375 -55.824375 1.12765625 -55.484375 3.84765625 C-54.91332031 3.38875 -54.34226563 2.92984375 -53.75390625 2.45703125 C-37.6172521 -9.75449081 -17.11043437 -10.94960187 0 0 Z M-51.82421875 26.5625 C-56.45041319 33.33417593 -58.18928481 40.67070242 -57.484375 48.84765625 C-55.82553248 57.5824989 -53.2234662 64.19454043 -46.046875 69.66015625 C-39.2460887 74.07776102 -32.47089076 74.80442674 -24.484375 73.84765625 C-16.28411953 71.34686912 -10.84092289 66.26608356 -6.390625 59.08203125 C-2.68668059 51.19400148 -3.19000224 40.40108205 -6.046875 32.34765625 C-9.41353025 25.2612001 -14.66297631 20.38129015 -21.96484375 17.5078125 C-32.90954333 14.64013152 -44.68515108 17.42532592 -51.82421875 26.5625 Z " fill="#FFFFFF" transform="translate(275.484375,130.15234375)"/>
<path d="M0 0 C2.39071984 1.65537202 4.70264747 3.35471466 6.96875 5.17578125 C7.29875 2.53578125 7.62875 -0.10421875 7.96875 -2.82421875 C16.21875 -2.82421875 24.46875 -2.82421875 32.96875 -2.82421875 C32.96875 29.84578125 32.96875 62.51578125 32.96875 96.17578125 C24.71875 96.17578125 16.46875 96.17578125 7.96875 96.17578125 C7.47375 92.21578125 7.47375 92.21578125 6.96875 88.17578125 C6.39769531 88.6346875 5.82664062 89.09359375 5.23828125 89.56640625 C-5.05020206 97.35228551 -16.13603902 100.68742081 -29.03125 99.17578125 C-37.43253618 97.45293685 -44.28611373 94.44541896 -51.03125 89.17578125 C-51.85625 88.55574219 -52.68125 87.93570313 -53.53125 87.296875 C-62.88872226 79.35764463 -68.53429553 67.24214156 -70.03125 55.17578125 C-70.91577145 38.42090383 -69.07816979 23.04483577 -57.71875 9.92578125 C-42.55892298 -6.03456468 -19.77233842 -11.8990748 0 0 Z M-37.96875 26.98828125 C-44.36645258 35.12120977 -44.91484613 42.95472332 -44.03125 53.17578125 C-42.24460575 61.35809403 -37.70889206 67.01259468 -31.12890625 71.87890625 C-24.95035651 75.69879175 -19.1385796 75.89104117 -12.03125 75.17578125 C-4.49687015 73.23704252 1.16937774 68.67689956 5.25390625 62.109375 C9.66680499 53.26776067 9.74655194 44.35919201 7.03515625 34.97265625 C4.22426659 27.60050608 -0.02665314 23.62890055 -6.98046875 20.0859375 C-18.22683324 15.09469383 -29.72926106 18.248907 -37.96875 26.98828125 Z " fill="#FFFFFF" transform="translate(382.03125,128.82421875)"/>
<path d="M0 0 C10.97235908 9.3836012 17.03136588 19.80147655 19.40234375 34.02734375 C19.40234375 39.30734375 19.40234375 44.58734375 19.40234375 50.02734375 C-6.66765625 50.02734375 -32.73765625 50.02734375 -59.59765625 50.02734375 C-55.19899691 61.0239921 -52.95206038 65.28765172 -42.59765625 70.02734375 C-33.49981667 72.9496801 -23.97352601 71.15612701 -15.59765625 67.02734375 C-15.02982422 66.55707764 -14.46199219 66.08681152 -13.87695312 65.60229492 C-11.78125787 63.95137528 -10.14350481 62.8523269 -7.59765625 62.02734375 C-3.54518064 62.85687989 -0.19371173 64.71841295 3.40234375 66.71484375 C4.36785156 67.21435547 5.33335937 67.71386719 6.328125 68.22851562 C8.70484169 69.46393767 11.05921393 70.72966407 13.40234375 72.02734375 C6.42998403 83.71915588 -2.93873041 89.84421743 -15.88671875 93.7109375 C-30.67704023 97.29721946 -47.9567376 95.77533854 -61.22265625 88.08984375 C-72.15618272 81.00476071 -80.64266227 70.67705601 -84.0078125 57.9453125 C-85.93021866 45.17595241 -86.51089572 30.79838608 -80.59765625 19.02734375 C-80.18515625 18.17527344 -79.77265625 17.32320312 -79.34765625 16.4453125 C-72.30516006 3.42069596 -61.75851107 -3.73988308 -48.30078125 -8.84375 C-32.45690217 -13.29600284 -13.01264401 -9.8817823 0 0 Z M-53.65234375 20.69921875 C-56.21234097 23.53660899 -56.21234097 23.53660899 -58.59765625 30.02734375 C-41.43765625 30.02734375 -24.27765625 30.02734375 -6.59765625 30.02734375 C-9.66940372 20.81210135 -14.13072129 17.31508646 -22.59765625 13.02734375 C-34.27659638 9.17260516 -44.86253842 12.94906781 -53.65234375 20.69921875 Z " fill="#FFFFFF" transform="translate(642.59765625,132.97265625)"/>
<path d="M0 0 C8.25 0 16.5 0 25 0 C25 45.54 25 91.08 25 138 C16.75 138 8.5 138 0 138 C0 92.46 0 46.92 0 0 Z " fill="#FFFFFF" transform="translate(679,87)"/>
<path d="M0 0 C6.47993238 5.04619463 10.26958842 12.38567317 11.703125 20.40234375 C12.59714587 29.68761315 10.02487887 37.38193814 4.35546875 44.7578125 C-1.30872176 50.93573192 -8.4110968 54.16545266 -16.7578125 54.74609375 C-25.5743765 54.62715191 -33.72764459 51.98545837 -40.0859375 45.73828125 C-45.84570459 38.90384064 -48.7991804 31.05664768 -48.41796875 22.06640625 C-47.17842731 13.58681594 -43.69937933 6.23789822 -37.07421875 0.71484375 C-24.94669927 -6.778431 -12.44170633 -7.70870317 0 0 Z " fill="#94C934" transform="translate(241.07421875,342.28515625)"/>
</svg>
